<mxfile host="Electron" modified="2023-11-29T16:32:22.130Z" agent="Mozilla/5.0 (Windows NT 10.0; Win64; x64) AppleWebKit/537.36 (KHTML, like Gecko) draw.io/22.1.2 Chrome/114.0.5735.289 Electron/25.9.4 Safari/537.36" etag="76zQCSW5xRCSfuxLFbdF" version="22.1.2" type="device">
  <diagram name="Page-1" id="ogQR0vbufsRBDoe3NQwy">
    <mxGraphModel dx="1088" dy="488" grid="1" gridSize="10" guides="1" tooltips="1" connect="1" arrows="1" fold="1" page="1" pageScale="1" pageWidth="1100" pageHeight="850" math="0" shadow="0">
      <root>
        <mxCell id="0" />
        <mxCell id="1" parent="0" />
        <mxCell id="CoPNUWldJfnN6J_34wdA-11" value="" style="ellipse;shape=cloud;whiteSpace=wrap;html=1;" parent="1" vertex="1">
          <mxGeometry x="160" y="130" width="540" height="319" as="geometry" />
        </mxCell>
        <mxCell id="_ZGS0wOMplei5ZUW_Q5_-11" style="edgeStyle=orthogonalEdgeStyle;rounded=0;orthogonalLoop=1;jettySize=auto;html=1;" edge="1" parent="1" source="fDsw_7z1_r8_yfR1lQKa-1" target="_ZGS0wOMplei5ZUW_Q5_-1">
          <mxGeometry relative="1" as="geometry" />
        </mxCell>
        <mxCell id="fDsw_7z1_r8_yfR1lQKa-1" value="&amp;lt;&amp;lt;connector&amp;gt;&amp;gt;&lt;br&gt;Consumer" style="ellipse;whiteSpace=wrap;html=1;aspect=fixed;" parent="1" vertex="1">
          <mxGeometry x="260" y="301" width="80" height="79" as="geometry" />
        </mxCell>
        <mxCell id="_ZGS0wOMplei5ZUW_Q5_-3" value="" style="rounded=0;orthogonalLoop=1;jettySize=auto;html=1;" edge="1" parent="1" source="fDsw_7z1_r8_yfR1lQKa-3" target="fDsw_7z1_r8_yfR1lQKa-1">
          <mxGeometry relative="1" as="geometry">
            <mxPoint x="430" y="492.65529323268584" as="targetPoint" />
          </mxGeometry>
        </mxCell>
        <mxCell id="_ZGS0wOMplei5ZUW_Q5_-5" value="" style="rounded=0;orthogonalLoop=1;jettySize=auto;html=1;" edge="1" parent="1" source="fDsw_7z1_r8_yfR1lQKa-3" target="_ZGS0wOMplei5ZUW_Q5_-4">
          <mxGeometry relative="1" as="geometry" />
        </mxCell>
        <mxCell id="fDsw_7z1_r8_yfR1lQKa-3" value="&amp;lt;&amp;lt;connector&amp;gt;&amp;gt;&lt;br&gt;Provider" style="ellipse;whiteSpace=wrap;html=1;aspect=fixed;" parent="1" vertex="1">
          <mxGeometry x="530" y="300" width="80" height="79" as="geometry" />
        </mxCell>
        <mxCell id="fDsw_7z1_r8_yfR1lQKa-4" value="Connector" style="ellipse;whiteSpace=wrap;html=1;aspect=fixed;" parent="1" vertex="1">
          <mxGeometry x="510" y="200" width="80" height="79" as="geometry" />
        </mxCell>
        <mxCell id="fDsw_7z1_r8_yfR1lQKa-5" value="Data Space" style="text;html=1;strokeColor=none;fillColor=none;align=center;verticalAlign=middle;whiteSpace=wrap;rounded=0;" parent="1" vertex="1">
          <mxGeometry x="352" y="173" width="81" height="30" as="geometry" />
        </mxCell>
        <mxCell id="_ZGS0wOMplei5ZUW_Q5_-1" value="Data Sink" style="shape=cylinder3;whiteSpace=wrap;html=1;boundedLbl=1;backgroundOutline=1;size=15;" vertex="1" parent="1">
          <mxGeometry x="130" y="300" width="60" height="80" as="geometry" />
        </mxCell>
        <mxCell id="_ZGS0wOMplei5ZUW_Q5_-8" style="edgeStyle=orthogonalEdgeStyle;rounded=0;orthogonalLoop=1;jettySize=auto;html=1;exitX=0;exitY=0.5;exitDx=0;exitDy=0;exitPerimeter=0;entryX=1;entryY=0.5;entryDx=0;entryDy=0;" edge="1" parent="1" source="_ZGS0wOMplei5ZUW_Q5_-2" target="fDsw_7z1_r8_yfR1lQKa-3">
          <mxGeometry relative="1" as="geometry" />
        </mxCell>
        <mxCell id="_ZGS0wOMplei5ZUW_Q5_-2" value="Data Source" style="shape=cylinder3;whiteSpace=wrap;html=1;boundedLbl=1;backgroundOutline=1;size=15;" vertex="1" parent="1">
          <mxGeometry x="700" y="300" width="60" height="80" as="geometry" />
        </mxCell>
        <mxCell id="_ZGS0wOMplei5ZUW_Q5_-9" style="rounded=0;orthogonalLoop=1;jettySize=auto;html=1;entryX=1;entryY=0;entryDx=0;entryDy=0;" edge="1" parent="1" source="_ZGS0wOMplei5ZUW_Q5_-4" target="fDsw_7z1_r8_yfR1lQKa-1">
          <mxGeometry relative="1" as="geometry" />
        </mxCell>
        <mxCell id="_ZGS0wOMplei5ZUW_Q5_-4" value="&amp;lt;&amp;lt;connector&amp;gt;&amp;gt;&lt;br&gt;Catalog" style="ellipse;whiteSpace=wrap;html=1;aspect=fixed;" vertex="1" parent="1">
          <mxGeometry x="387" y="215" width="80" height="79" as="geometry" />
        </mxCell>
        <mxCell id="_ZGS0wOMplei5ZUW_Q5_-10" value="Registry" style="ellipse;whiteSpace=wrap;html=1;aspect=fixed;" vertex="1" parent="1">
          <mxGeometry x="272" y="215" width="80" height="79" as="geometry" />
        </mxCell>
      </root>
    </mxGraphModel>
  </diagram>
</mxfile>
